<?xml version="1.0" encoding="UTF-8"?>
<svg xmlns="http://www.w3.org/2000/svg" baseProfile="tiny" version="1.2" viewBox="0 0 1524 1030">
  <!-- Generator: Adobe Illustrator 28.7.1, SVG Export Plug-In . SVG Version: 1.2.0 Build 142)  -->
  <g>
    <g id="g-earning-Artboard_1-interaction-img">
      <g>
        <g id="anno2">
          <circle cx="1171.326" cy="290.083" r="30.602" fill="none" stroke="#000" stroke-miterlimit="10"/>
          <g>
            <path d="M1261.338,236.593c0-3.785,2.084-6.082,5.051-6.082s5.051,2.304,5.051,6.082-2.082,6.167-5.051,6.167-5.051-2.383-5.051-6.167ZM1269.887,236.593c0-2.944-1.388-4.76-3.498-4.76s-3.497,1.816-3.497,4.76,1.388,4.845,3.497,4.845,3.498-1.901,3.498-4.845Z"/>
            <path d="M1273.838,233.792h1.224l.125,1.263h.05c.834-.821,1.734-1.479,2.936-1.479,1.844,0,2.672,1.19,2.672,3.423v5.545h-1.48v-5.354c0-1.63-.493-2.328-1.652-2.328-.895,0-1.514.457-2.392,1.344v6.338h-1.481v-8.752Z"/>
            <path d="M1283.684,240.787v-11.07h1.481v11.178c0,.453.197.633.413.633.086,0,.158,0,.324-.036l.201,1.13c-.211.076-.465.139-.853.139-1.11,0-1.567-.708-1.567-1.974Z"/>
            <path d="M1287.396,246.136l.289-1.18c.174.059.441.131.668.131.987,0,1.611-.792,1.973-1.879l.199-.646-3.512-8.77h1.526l1.786,4.845c.274.76.568,1.657.853,2.466h.072c.248-.796.497-1.692.735-2.466l1.561-4.845h1.451l-3.299,9.473c-.617,1.737-1.521,3.051-3.276,3.051-.407,0-.745-.072-1.026-.18Z"/>
            <path d="M1299.336,233.877l1.254-.085h3.27v1.207h-4.523v-1.121ZM1300.524,232.41c0-1.779.81-2.909,2.563-2.909.532,0,1.057.134,1.453.301l-.312,1.13c-.334-.153-.68-.226-.991-.226-.826,0-1.231.578-1.231,1.708v10.129h-1.481v-10.135Z"/>
            <path d="M1304.705,238.18c0-2.849,1.92-4.604,3.935-4.604,2.232,0,3.493,1.603,3.493,4.107,0,.312-.027.625-.069.841h-5.894c.105,1.854,1.239,3.056,2.908,3.056.839,0,1.529-.271,2.178-.7l.529.972c-.768.502-1.699.908-2.89.908-2.333,0-4.19-1.706-4.19-4.581ZM1310.824,237.463c0-1.754-.789-2.708-2.158-2.708-1.23,0-2.33.988-2.51,2.708h4.668Z"/>
            <path d="M1314.283,233.792h1.224l.125,1.269h.05c.766-.827,1.681-1.485,2.723-1.485,1.338,0,2.057.641,2.417,1.668.909-.984,1.821-1.668,2.887-1.668,1.798,0,2.663,1.19,2.663,3.423v5.545h-1.481v-5.354c0-1.63-.516-2.328-1.629-2.328-.679,0-1.384.444-2.193,1.344v6.338h-1.481v-5.354c0-1.63-.516-2.328-1.628-2.328-.656,0-1.384.444-2.193,1.344v6.338h-1.481v-8.752Z"/>
            <path d="M1328.663,240.272c0-1.907,1.646-2.86,5.376-3.266-.004-1.126-.378-2.21-1.807-2.21-1.013,0-1.925.479-2.611.938l-.579-1.015c.806-.528,2.034-1.143,3.438-1.143,2.135,0,3.039,1.419,3.039,3.599v5.37h-1.224l-.125-1.046h-.05c-.834.694-1.808,1.263-2.894,1.263-1.466,0-2.564-.91-2.564-2.489ZM1334.039,240.409v-2.43c-2.934.353-3.926,1.071-3.926,2.189,0,.995.676,1.399,1.534,1.399.846,0,1.544-.412,2.392-1.159Z"/>
            <path d="M1338.277,240.787v-11.07h1.481v11.178c0,.453.196.633.413.633.085,0,.157,0,.324-.036l.201,1.13c-.211.076-.465.139-.854.139-1.109,0-1.566-.708-1.566-1.974Z"/>
            <path d="M1342.217,238.18c0-2.849,1.92-4.604,3.935-4.604,2.232,0,3.493,1.603,3.493,4.107,0,.312-.027.625-.069.841h-5.894c.105,1.854,1.239,3.056,2.908,3.056.839,0,1.529-.271,2.178-.7l.529.972c-.768.502-1.699.908-2.89.908-2.333,0-4.19-1.706-4.19-4.581ZM1348.336,237.463c0-1.754-.789-2.708-2.158-2.708-1.23,0-2.33.988-2.51,2.708h4.668Z"/>
            <path d="M1350.824,241.545l.731-.975c.76.612,1.532,1.037,2.583,1.037,1.149,0,1.721-.612,1.721-1.359,0-.9-1.033-1.299-2.002-1.659-1.227-.448-2.61-1.052-2.61-2.528,0-1.4,1.122-2.484,3.019-2.484,1.09,0,2.043.446,2.722.983l-.708.949c-.604-.445-1.222-.779-1.996-.779-1.103,0-1.611.588-1.611,1.255,0,.832.951,1.149,1.942,1.519,1.263.476,2.669.989,2.669,2.655,0,1.419-1.127,2.602-3.193,2.602-1.243,0-2.443-.527-3.266-1.215Z"/>
            <path d="M1362.666,231.036c0-.582.447-.957,1.022-.957s1.022.375,1.022.957c0,.559-.446.957-1.022.957s-1.022-.398-1.022-.957ZM1362.937,233.792h1.481v8.752h-1.481v-8.752Z"/>
            <path d="M1367.364,233.792h1.224l.125,1.263h.049c.834-.821,1.734-1.479,2.937-1.479,1.844,0,2.673,1.19,2.673,3.423v5.545h-1.482v-5.354c0-1.63-.492-2.328-1.65-2.328-.895,0-1.516.457-2.393,1.344v6.338h-1.481v-8.752Z"/>
            <path d="M1262.146,261.438v-4.84h-1.303v-1.121l1.369-.085.178-2.455h1.236v2.455h2.371v1.207h-2.371v4.866c0,1.07.345,1.69,1.354,1.69.311,0,.713-.118.997-.235l.286,1.118c-.491.167-1.078.324-1.624.324-1.862,0-2.493-1.18-2.493-2.922Z"/>
            <path d="M1267.971,251.317h1.48v3.509l-.053,1.799c.816-.791,1.704-1.448,2.906-1.448,1.844,0,2.672,1.19,2.672,3.422v5.546h-1.481v-5.354c0-1.63-.493-2.328-1.651-2.328-.895,0-1.515.457-2.393,1.344v6.338h-1.48v-12.828Z"/>
            <path d="M1277.491,252.636c0-.582.447-.957,1.022-.957s1.023.375,1.023.957c0,.559-.447.957-1.023.957s-1.022-.398-1.022-.957ZM1277.762,255.392h1.481v8.752h-1.481v-8.752Z"/>
            <path d="M1281.22,263.146l.731-.975c.76.612,1.531,1.037,2.583,1.037,1.149,0,1.72-.612,1.72-1.359,0-.9-1.033-1.299-2.002-1.659-1.227-.448-2.609-1.052-2.609-2.528,0-1.4,1.121-2.484,3.019-2.484,1.089,0,2.042.446,2.722.983l-.709.949c-.603-.445-1.222-.779-1.996-.779-1.102,0-1.611.588-1.611,1.255,0,.832.951,1.149,1.943,1.519,1.262.476,2.668.989,2.668,2.655,0,1.419-1.127,2.602-3.193,2.602-1.242,0-2.442-.527-3.265-1.215Z"/>
            <path d="M1293.592,261.438v-4.84h-1.303v-1.121l1.369-.085.178-2.455h1.236v2.455h2.371v1.207h-2.371v4.866c0,1.07.345,1.69,1.354,1.69.311,0,.713-.118.997-.235l.286,1.118c-.491.167-1.078.324-1.624.324-1.862,0-2.493-1.18-2.493-2.922Z"/>
            <path d="M1298.537,267.736l.291-1.18c.173.059.441.13.666.13.988,0,1.611-.792,1.974-1.879l.199-.646-3.512-8.77h1.526l1.785,4.845c.275.76.569,1.657.854,2.466h.072c.248-.796.496-1.692.735-2.466l1.561-4.845h1.45l-3.298,9.473c-.618,1.737-1.521,3.051-3.276,3.051-.407,0-.744-.072-1.027-.18Z"/>
            <path d="M1307.821,255.392h1.224l.125,1.01h.049c.792-.658,1.776-1.226,2.791-1.226,2.261,0,3.47,1.755,3.47,4.459,0,2.983-1.791,4.725-3.79,4.725-.803,0-1.623-.369-2.427-1.014l.04,1.527v2.963h-1.481v-12.445ZM1313.949,259.649c0-1.932-.66-3.227-2.307-3.227-.742,0-1.488.408-2.34,1.194v4.587c.793.666,1.553.91,2.131.91,1.448,0,2.516-1.304,2.516-3.465Z"/>
            <path d="M1317.162,259.78c0-2.849,1.919-4.604,3.934-4.604,2.232,0,3.493,1.603,3.493,4.107,0,.312-.026.625-.069.841h-5.895c.106,1.854,1.24,3.056,2.908,3.056.84,0,1.529-.271,2.178-.7l.531.972c-.768.502-1.7.908-2.891.908-2.333,0-4.189-1.706-4.189-4.581ZM1323.279,259.063c0-1.754-.788-2.708-2.156-2.708-1.23,0-2.33.988-2.511,2.708h4.667Z"/>
            <path d="M1329.689,259.78c0-2.92,1.91-4.604,4.055-4.604s4.057,1.683,4.057,4.604c0,2.898-1.911,4.581-4.057,4.581s-4.055-1.683-4.055-4.581ZM1336.27,259.78c0-2.006-1.02-3.371-2.525-3.371s-2.525,1.365-2.525,3.371,1.021,3.348,2.525,3.348,2.525-1.342,2.525-3.348Z"/>
            <path d="M1339.115,255.478l1.254-.085h3.27v1.207h-4.523v-1.121ZM1340.304,254.01c0-1.779.81-2.909,2.563-2.909.532,0,1.057.134,1.453.301l-.312,1.13c-.334-.153-.68-.226-.991-.226-.826,0-1.231.578-1.231,1.708v10.129h-1.481v-10.135Z"/>
            <path d="M1348.265,259.78c0-2.92,1.91-4.604,4.056-4.604s4.056,1.683,4.056,4.604c0,2.898-1.911,4.581-4.056,4.581s-4.056-1.683-4.056-4.581ZM1354.846,259.78c0-2.006-1.021-3.371-2.525-3.371s-2.525,1.365-2.525,3.371,1.02,3.348,2.525,3.348,2.525-1.342,2.525-3.348Z"/>
            <path d="M1358.021,259.78c0-2.92,1.973-4.604,4.211-4.604,1.148,0,1.944.474,2.561,1.027l-.758.979c-.51-.46-1.048-.773-1.737-.773-1.584,0-2.746,1.365-2.746,3.371s1.098,3.348,2.707,3.348c.8,0,1.509-.389,2.055-.872l.643.993c-.787.701-1.779,1.112-2.83,1.112-2.329,0-4.104-1.683-4.104-4.581Z"/>
            <path d="M1365.851,259.78c0-2.92,1.973-4.604,4.211-4.604,1.148,0,1.944.474,2.561,1.027l-.758.979c-.51-.46-1.048-.773-1.737-.773-1.584,0-2.746,1.365-2.746,3.371s1.098,3.348,2.707,3.348c.8,0,1.509-.389,2.055-.872l.643.993c-.787.701-1.779,1.112-2.83,1.112-2.329,0-4.104-1.683-4.104-4.581Z"/>
            <path d="M1374.592,260.938v-5.546h1.48v5.354c0,1.63.492,2.328,1.651,2.328.895,0,1.515-.444,2.343-1.475v-6.208h1.481v8.752h-1.224l-.125-1.371h-.049c-.812.956-1.686,1.586-2.887,1.586-1.844,0-2.672-1.19-2.672-3.422Z"/>
            <path d="M1384.5,255.392h1.224l.125,1.01h.05c.791-.658,1.775-1.226,2.789-1.226,2.262,0,3.471,1.755,3.471,4.459,0,2.983-1.791,4.725-3.791,4.725-.801,0-1.622-.369-2.426-1.014l.04,1.527v2.963h-1.481v-12.445ZM1390.628,259.649c0-1.932-.659-3.227-2.308-3.227-.74,0-1.488.408-2.339,1.194v4.587c.792.666,1.553.91,2.131.91,1.448,0,2.516-1.304,2.516-3.465Z"/>
            <path d="M1393.696,261.872c0-1.907,1.646-2.86,5.376-3.266-.004-1.126-.378-2.21-1.807-2.21-1.013,0-1.925.479-2.611.938l-.579-1.015c.806-.528,2.034-1.143,3.438-1.143,2.135,0,3.039,1.419,3.039,3.599v5.37h-1.224l-.125-1.046h-.05c-.834.694-1.808,1.262-2.894,1.262-1.466,0-2.564-.909-2.564-2.488ZM1399.072,262.009v-2.431c-2.934.353-3.926,1.071-3.926,2.19,0,.995.676,1.399,1.534,1.399.846,0,1.544-.412,2.392-1.159Z"/>
            <path d="M1403.318,261.438v-4.84h-1.303v-1.121l1.369-.085.178-2.455h1.236v2.455h2.371v1.207h-2.371v4.866c0,1.07.346,1.69,1.354,1.69.312,0,.713-.118.998-.235l.285,1.118c-.49.167-1.077.324-1.623.324-1.863,0-2.494-1.18-2.494-2.922Z"/>
            <path d="M1408.871,252.636c0-.582.447-.957,1.023-.957s1.022.375,1.022.957c0,.559-.446.957-1.022.957s-1.023-.398-1.023-.957ZM1409.143,255.392h1.48v8.752h-1.48v-8.752Z"/>
            <path d="M1412.92,259.78c0-2.92,1.91-4.604,4.057-4.604s4.055,1.683,4.055,4.604c0,2.898-1.91,4.581-4.055,4.581s-4.057-1.683-4.057-4.581ZM1419.502,259.78c0-2.006-1.021-3.371-2.525-3.371s-2.525,1.365-2.525,3.371,1.02,3.348,2.525,3.348,2.525-1.342,2.525-3.348Z"/>
            <path d="M1423.326,255.392h1.224l.125,1.263h.05c.834-.821,1.734-1.479,2.936-1.479,1.844,0,2.672,1.19,2.672,3.422v5.546h-1.48v-5.354c0-1.63-.493-2.328-1.652-2.328-.895,0-1.514.457-2.392,1.344v6.338h-1.481v-8.752Z"/>
            <path d="M1432.201,263.146l.731-.975c.76.612,1.532,1.037,2.583,1.037,1.149,0,1.721-.612,1.721-1.359,0-.9-1.033-1.299-2.002-1.659-1.227-.448-2.61-1.052-2.61-2.528,0-1.4,1.122-2.484,3.019-2.484,1.09,0,2.043.446,2.722.983l-.708.949c-.604-.445-1.222-.779-1.996-.779-1.103,0-1.611.588-1.611,1.255,0,.832.951,1.149,1.942,1.519,1.263.476,2.669.989,2.669,2.655,0,1.419-1.127,2.602-3.193,2.602-1.243,0-2.443-.527-3.266-1.215Z"/>
            <path d="M1261.236,281.38c0-2.921,1.91-4.604,4.056-4.604s4.056,1.683,4.056,4.604c0,2.898-1.91,4.581-4.056,4.581s-4.056-1.683-4.056-4.581ZM1267.817,281.38c0-2.006-1.021-3.371-2.525-3.371s-2.525,1.365-2.525,3.371,1.021,3.348,2.525,3.348,2.525-1.342,2.525-3.348Z"/>
            <path d="M1271.643,276.992h1.223l.125,1.263h.05c.834-.821,1.734-1.479,2.937-1.479,1.844,0,2.672,1.19,2.672,3.423v5.545h-1.481v-5.354c0-1.63-.493-2.328-1.651-2.328-.895,0-1.515.457-2.393,1.344v6.338h-1.48v-8.752Z"/>
            <path d="M1280.838,281.38c0-2.921,1.973-4.604,4.211-4.604,1.148,0,1.945.474,2.561,1.027l-.758.979c-.51-.46-1.048-.773-1.736-.773-1.584,0-2.746,1.365-2.746,3.371s1.098,3.348,2.707,3.348c.799,0,1.508-.389,2.055-.872l.643.993c-.787.701-1.78,1.113-2.83,1.113-2.33,0-4.105-1.683-4.105-4.581Z"/>
            <path d="M1288.668,281.38c0-2.849,1.92-4.604,3.934-4.604,2.232,0,3.493,1.603,3.493,4.107,0,.312-.026.625-.069.841h-5.894c.106,1.854,1.239,3.056,2.908,3.056.839,0,1.529-.271,2.178-.7l.53.972c-.768.502-1.699.908-2.891.908-2.332,0-4.189-1.706-4.189-4.581ZM1294.786,280.664c0-1.754-.788-2.708-2.157-2.708-1.23,0-2.33.988-2.51,2.708h4.667Z"/>
            <path d="M1301.195,281.38c0-2.849,1.92-4.604,3.935-4.604,2.232,0,3.493,1.603,3.493,4.107,0,.312-.027.625-.069.841h-5.894c.105,1.854,1.239,3.056,2.908,3.056.839,0,1.529-.271,2.178-.7l.529.972c-.768.502-1.699.908-2.89.908-2.333,0-4.19-1.706-4.19-4.581ZM1307.314,280.664c0-1.754-.789-2.708-2.158-2.708-1.23,0-2.33.988-2.51,2.708h4.668Z"/>
            <path d="M1309.979,283.472c0-1.907,1.646-2.86,5.376-3.266-.004-1.126-.378-2.21-1.807-2.21-1.013,0-1.925.479-2.611.938l-.579-1.015c.806-.528,2.034-1.143,3.438-1.143,2.135,0,3.039,1.419,3.039,3.599v5.37h-1.224l-.125-1.046h-.05c-.834.694-1.808,1.263-2.894,1.263-1.466,0-2.564-.91-2.564-2.489ZM1315.355,283.609v-2.43c-2.934.353-3.926,1.071-3.926,2.189,0,.995.676,1.399,1.534,1.399.846,0,1.544-.412,2.392-1.159Z"/>
            <path d="M1319.594,276.992h1.224l.125,1.594h.05c.609-1.111,1.504-1.81,2.488-1.81.387,0,.659.049.934.18l-.276,1.299c-.302-.095-.498-.144-.849-.144-.739,0-1.623.533-2.214,2.013v5.62h-1.481v-8.752Z"/>
            <path d="M1325.84,276.992h1.223l.125,1.263h.05c.834-.821,1.734-1.479,2.937-1.479,1.844,0,2.672,1.19,2.672,3.423v5.545h-1.481v-5.354c0-1.63-.493-2.328-1.651-2.328-.895,0-1.515.457-2.393,1.344v6.338h-1.48v-8.752Z"/>
            <path d="M1335.035,281.38c0-2.849,1.92-4.604,3.934-4.604,2.232,0,3.493,1.603,3.493,4.107,0,.312-.026.625-.069.841h-5.894c.106,1.854,1.239,3.056,2.908,3.056.839,0,1.529-.271,2.178-.7l.53.972c-.768.502-1.699.908-2.891.908-2.332,0-4.189-1.706-4.189-4.581ZM1341.153,280.664c0-1.754-.788-2.708-2.157-2.708-1.23,0-2.33.988-2.51,2.708h4.667Z"/>
            <path d="M1343.989,281.38c0-2.839,1.791-4.604,3.787-4.604,1.018,0,1.685.383,2.452,1.014l-.062-1.501v-3.372h1.481v12.828h-1.224l-.125-1.033h-.049c-.681.681-1.613,1.25-2.656,1.25-2.188,0-3.604-1.664-3.604-4.581ZM1350.166,283.52v-4.587c-.746-.666-1.42-.91-2.135-.91-1.398,0-2.512,1.35-2.512,3.344,0,2.098.868,3.348,2.402,3.348.809,0,1.511-.395,2.244-1.194Z"/>
            <path d="M1358.203,276.992h1.223l.125,1.269h.05c.766-.827,1.681-1.485,2.724-1.485,1.338,0,2.056.641,2.416,1.668.909-.984,1.822-1.668,2.887-1.668,1.799,0,2.663,1.19,2.663,3.423v5.545h-1.481v-5.354c0-1.63-.516-2.328-1.628-2.328-.679,0-1.384.444-2.194,1.344v6.338h-1.48v-5.354c0-1.63-.516-2.328-1.629-2.328-.656,0-1.384.444-2.193,1.344v6.338h-1.48v-8.752Z"/>
            <path d="M1372.475,281.38c0-2.921,1.91-4.604,4.056-4.604s4.056,1.683,4.056,4.604c0,2.898-1.91,4.581-4.056,4.581s-4.056-1.683-4.056-4.581ZM1379.056,281.38c0-2.006-1.021-3.371-2.525-3.371s-2.525,1.365-2.525,3.371,1.021,3.348,2.525,3.348,2.525-1.342,2.525-3.348Z"/>
            <path d="M1382.881,276.992h1.223l.125,1.594h.05c.609-1.111,1.504-1.81,2.488-1.81.388,0,.659.049.935.18l-.277,1.299c-.301-.095-.498-.144-.848-.144-.74,0-1.623.533-2.215,2.013v5.62h-1.48v-8.752Z"/>
            <path d="M1388.297,281.38c0-2.849,1.919-4.604,3.934-4.604,2.232,0,3.493,1.603,3.493,4.107,0,.312-.026.625-.069.841h-5.895c.106,1.854,1.24,3.056,2.908,3.056.84,0,1.529-.271,2.178-.7l.531.972c-.768.502-1.7.908-2.891.908-2.333,0-4.189-1.706-4.189-4.581ZM1394.414,280.664c0-1.754-.788-2.708-2.156-2.708-1.23,0-2.33.988-2.511,2.708h4.667Z"/>
            <path d="M1401.734,283.039v-4.84h-1.303v-1.121l1.369-.085.178-2.455h1.236v2.455h2.371v1.207h-2.371v4.866c0,1.07.345,1.69,1.354,1.69.311,0,.713-.118.997-.235l.286,1.118c-.491.167-1.078.324-1.624.324-1.862,0-2.493-1.181-2.493-2.922Z"/>
            <path d="M1407.559,272.917h1.48v3.509l-.053,1.799c.816-.791,1.704-1.448,2.906-1.448,1.844,0,2.672,1.19,2.672,3.423v5.545h-1.481v-5.354c0-1.63-.493-2.328-1.651-2.328-.895,0-1.515.457-2.393,1.344v6.338h-1.48v-12.828Z"/>
            <path d="M1416.809,283.472c0-1.907,1.645-2.86,5.375-3.266-.004-1.126-.377-2.21-1.807-2.21-1.012,0-1.924.479-2.61.938l-.579-1.015c.805-.528,2.033-1.143,3.438-1.143,2.136,0,3.039,1.419,3.039,3.599v5.37h-1.223l-.125-1.046h-.05c-.834.694-1.808,1.263-2.894,1.263-1.466,0-2.564-.91-2.564-2.489ZM1422.184,283.609v-2.43c-2.934.353-3.925,1.071-3.925,2.189,0,.995.675,1.399,1.534,1.399.846,0,1.543-.412,2.391-1.159Z"/>
            <path d="M1426.422,276.992h1.224l.125,1.263h.05c.834-.821,1.734-1.479,2.936-1.479,1.844,0,2.672,1.19,2.672,3.423v5.545h-1.48v-5.354c0-1.63-.493-2.328-1.652-2.328-.895,0-1.514.457-2.392,1.344v6.338h-1.481v-8.752Z"/>
            <path d="M1439.867,276.992h1.225l.125,1.269h.049c.766-.827,1.682-1.485,2.724-1.485,1.338,0,2.056.641,2.417,1.668.908-.984,1.82-1.668,2.887-1.668,1.798,0,2.662,1.19,2.662,3.423v5.545h-1.48v-5.354c0-1.63-.516-2.328-1.629-2.328-.68,0-1.385.444-2.193,1.344v6.338h-1.481v-5.354c0-1.63-.516-2.328-1.628-2.328-.656,0-1.385.444-2.194,1.344v6.338h-1.481v-8.752Z"/>
            <path d="M1454.248,283.472c0-1.907,1.645-2.86,5.375-3.266-.004-1.126-.377-2.21-1.807-2.21-1.012,0-1.924.479-2.61.938l-.579-1.015c.805-.528,2.033-1.143,3.438-1.143,2.136,0,3.039,1.419,3.039,3.599v5.37h-1.223l-.125-1.046h-.05c-.834.694-1.808,1.263-2.894,1.263-1.466,0-2.564-.91-2.564-2.489ZM1459.623,283.609v-2.43c-2.934.353-3.925,1.071-3.925,2.189,0,.995.675,1.399,1.534,1.399.846,0,1.543-.412,2.391-1.159Z"/>
            <path d="M1463.861,283.987v-11.07h1.481v11.178c0,.453.197.633.413.633.086,0,.158,0,.324-.036l.201,1.13c-.211.076-.465.139-.853.139-1.11,0-1.567-.708-1.567-1.974Z"/>
            <path d="M1467.802,281.38c0-2.849,1.919-4.604,3.935-4.604,2.232,0,3.492,1.603,3.492,4.107,0,.312-.026.625-.068.841h-5.895c.105,1.854,1.24,3.056,2.908,3.056.84,0,1.529-.271,2.178-.7l.53.972c-.768.502-1.7.908-2.89.908-2.334,0-4.19-1.706-4.19-4.581ZM1473.92,280.664c0-1.754-.789-2.708-2.157-2.708-1.23,0-2.33.988-2.511,2.708h4.668Z"/>
            <path d="M1476.409,284.746l.731-.975c.76.612,1.531,1.037,2.583,1.037,1.149,0,1.72-.612,1.72-1.359,0-.9-1.033-1.299-2.002-1.659-1.227-.448-2.609-1.052-2.609-2.528,0-1.4,1.121-2.484,3.019-2.484,1.089,0,2.042.446,2.722.983l-.709.949c-.603-.445-1.222-.779-1.996-.779-1.102,0-1.611.588-1.611,1.255,0,.832.951,1.149,1.943,1.519,1.262.476,2.668.989,2.668,2.655,0,1.419-1.127,2.602-3.193,2.602-1.242,0-2.442-.527-3.265-1.215Z"/>
          </g>
          <g>
            <path d="M1202.178,265.005c2.961-4.773,9.707-13.576,21.707-17.721,13.879-4.794,25.226-5.133,28.646-3.699" fill="none" stroke="#000" stroke-miterlimit="10"/>
            <polygon points="1208.188 261.842 1207.584 261.044 1202.36 264.996 1203.822 258.611 1202.847 258.388 1200.772 267.45 1208.188 261.842"/>
          </g>
        </g>
        <polygon id="anno1" points="1165.201 311.508 1177.695 311.508 1172 277 1165.201 311.508" fill="#a30178"/>
      </g>
    </g>
  </g>
<style>
#g-earning-Artboard_1-interaction-img rect, #g-earning-Artboard_1-interaction-img circle, #g-earning-Artboard_1-interaction-img path, #g-earning-Artboard_1-interaction-img line, #g-earning-Artboard_1-interaction-img polyline, #g-earning-Artboard_1-interaction-img polygon { vector-effect: non-scaling-stroke; }
</style>
</svg>
